P2
# CREATOR: GIMP PNM Filter Version 1.1
3 3
255
150
32
32
255
64
255
94
255
96
